<svg width="2020" height="4243" viewBox="0 0 2020 4243" fill="none" xmlns="http://www.w3.org/2000/svg">
<g clip-path="url(#clip0_98_47)">
<path fill-rule="evenodd" clip-rule="evenodd" d="M2020 0H0V4243H2020V0ZM296.795 61.8984C163.142 61.8984 54.7949 170.246 54.7949 303.898V3940.58C54.7949 4074.23 163.142 4182.58 296.795 4182.58H1723.21C1856.86 4182.58 1965.21 4074.23 1965.21 3940.58V303.898C1965.21 170.246 1856.86 61.8984 1723.21 61.8984H296.795Z" fill="black"/>
<rect x="728" y="98" width="563" height="147" rx="73.5" fill="black"/>
<path d="M253.646 133.719V186.281H242.444V144.267H242.134L230 151.813V141.957L243.117 133.719H253.646Z" fill="black"/>
<path d="M286.574 187C283.849 186.983 281.219 186.529 278.684 185.639C276.165 184.75 273.906 183.304 271.905 181.302C269.905 179.3 268.318 176.648 267.145 173.346C265.989 170.044 265.412 165.988 265.412 161.18C265.429 156.766 265.938 152.822 266.938 149.349C267.956 145.858 269.404 142.898 271.284 140.469C273.182 138.039 275.45 136.191 278.089 134.925C280.727 133.642 283.685 133 286.962 133C290.498 133 293.62 133.684 296.328 135.053C299.036 136.405 301.209 138.244 302.847 140.571C304.503 142.898 305.504 145.508 305.849 148.399H294.801C294.37 146.568 293.465 145.131 292.085 144.087C290.705 143.044 288.998 142.522 286.962 142.522C283.513 142.522 280.891 144.01 279.097 146.988C277.321 149.965 276.415 154.011 276.381 159.127H276.743C277.537 157.57 278.606 156.244 279.951 155.149C281.314 154.037 282.857 153.19 284.582 152.608C286.324 152.009 288.161 151.71 290.093 151.71C293.232 151.71 296.026 152.446 298.475 153.917C300.924 155.372 302.856 157.373 304.27 159.923C305.685 162.472 306.392 165.39 306.392 168.675C306.392 172.234 305.555 175.399 303.882 178.171C302.227 180.943 299.907 183.116 296.923 184.69C293.956 186.247 290.507 187.017 286.574 187ZM286.523 178.274C288.247 178.274 289.791 177.863 291.154 177.042C292.516 176.22 293.585 175.108 294.362 173.705C295.138 172.302 295.526 170.728 295.526 168.983C295.526 167.237 295.138 165.672 294.362 164.286C293.603 162.9 292.551 161.796 291.205 160.975C289.86 160.154 288.325 159.743 286.6 159.743C285.307 159.743 284.108 159.983 283.004 160.462C281.917 160.941 280.96 161.608 280.132 162.464C279.322 163.319 278.684 164.312 278.218 165.441C277.752 166.553 277.519 167.742 277.519 169.008C277.519 170.702 277.907 172.251 278.684 173.654C279.477 175.057 280.546 176.178 281.892 177.016C283.254 177.854 284.798 178.274 286.523 178.274Z" fill="black"/>
<path d="M318.674 186.948C316.967 186.948 315.501 186.35 314.276 185.152C313.069 183.937 312.465 182.483 312.465 180.789C312.465 179.112 313.069 177.675 314.276 176.477C315.501 175.279 316.967 174.68 318.674 174.68C320.33 174.68 321.779 175.279 323.021 176.477C324.263 177.675 324.883 179.112 324.883 180.789C324.883 181.918 324.59 182.953 324.004 183.894C323.435 184.818 322.684 185.562 321.753 186.127C320.822 186.675 319.795 186.948 318.674 186.948Z" fill="black"/>
<path d="M350.263 133.719V186.281H339.061V144.267H338.751L326.617 151.813V141.957L339.734 133.719H350.263Z" fill="black"/>
<path d="M382.208 187C378.552 187 375.292 186.332 372.429 184.998C369.583 183.663 367.323 181.824 365.65 179.48C363.977 177.136 363.106 174.449 363.037 171.421H373.903C374.024 173.457 374.886 175.108 376.49 176.374C378.094 177.64 380 178.274 382.208 178.274C383.967 178.274 385.52 177.889 386.865 177.119C388.227 176.332 389.288 175.245 390.047 173.859C390.823 172.456 391.211 170.848 391.211 169.034C391.211 167.186 390.815 165.561 390.021 164.158C389.245 162.755 388.167 161.66 386.787 160.872C385.407 160.085 383.829 159.683 382.053 159.666C380.501 159.666 378.991 159.983 377.525 160.616C376.077 161.249 374.947 162.113 374.136 163.208L364.176 161.437L366.685 133.719H399.076V142.804H375.921L374.55 155.97H374.861C375.792 154.67 377.198 153.592 379.078 152.737C380.958 151.881 383.062 151.453 385.39 151.453C388.581 151.453 391.427 152.198 393.928 153.686C396.429 155.175 398.404 157.219 399.852 159.82C401.301 162.404 402.017 165.381 402 168.752C402.017 172.294 401.189 175.442 399.516 178.197C397.86 180.934 395.54 183.09 392.557 184.664C389.59 186.221 386.141 187 382.208 187Z" fill="black"/>
<path d="M1661.84 168.385L1655.28 161.682C1658.51 158.461 1662.21 155.993 1666.38 154.278C1670.54 152.563 1674.92 151.706 1679.5 151.706C1684.08 151.706 1688.47 152.577 1692.67 154.318C1696.86 156.06 1700.54 158.567 1703.72 161.838L1697.16 168.385C1694.81 166.047 1692.12 164.242 1689.07 162.97C1686.02 161.698 1682.83 161.061 1679.5 161.059C1676.17 161.057 1672.98 161.694 1669.93 162.97C1666.88 164.246 1664.19 166.051 1661.84 168.385ZM1648.56 155.135L1642 148.588C1646.95 143.548 1652.66 139.689 1659.15 137.012C1665.64 134.335 1672.42 132.998 1679.5 133C1686.58 133.002 1693.37 134.341 1699.85 137.016C1706.34 139.69 1712.06 143.548 1717 148.588L1710.44 155.135C1706.32 151.03 1701.6 147.874 1696.26 145.667C1690.92 143.46 1685.33 142.355 1679.5 142.353C1673.67 142.351 1668.08 143.456 1662.74 145.667C1657.4 147.878 1652.67 151.035 1648.56 155.135ZM1679.5 186L1668.48 174.932C1669.94 173.477 1671.62 172.36 1673.53 171.581C1675.43 170.801 1677.42 170.412 1679.5 170.412C1681.58 170.412 1683.57 170.801 1685.48 171.581C1687.38 172.36 1689.06 173.477 1690.52 174.932L1679.5 186Z" fill="black"/>
<path d="M1766.29 189H1836.91C1843.73 189 1849.47 188.404 1853.54 184.594C1857.61 180.784 1858.16 175.483 1858.16 169.096V149.942C1858.16 143.555 1857.61 138.216 1853.54 134.444C1849.43 130.632 1843.73 130 1836.91 130H1766.17C1759.47 130 1753.73 130.634 1749.66 134.444C1745.6 138.252 1745 143.555 1745 149.828V169.096C1745 175.481 1745.6 180.822 1749.66 184.594C1753.73 188.404 1759.47 189 1766.29 189ZM1765.18 182.988C1761.07 182.988 1756.76 182.466 1754.37 180.226C1751.94 177.946 1751.42 173.989 1751.42 170.143V149.006C1751.42 145.085 1751.94 141.052 1754.33 138.81C1756.76 136.534 1761.11 136.01 1765.3 136.01H1838.03C1842.09 136.01 1846.44 136.57 1848.83 138.812C1851.26 141.088 1851.74 145.047 1851.74 148.893V170.141C1851.74 173.987 1851.22 177.944 1848.83 180.224C1846.44 182.499 1842.09 182.984 1838.03 182.984L1765.18 182.988ZM1863.62 168.946C1866.77 168.761 1871 164.989 1871 159.275C1871 153.6 1866.77 149.828 1863.62 149.643V168.946Z" fill="#969797"/>
<path d="M1838 177.909H1764.38C1761.43 177.909 1759.79 177.536 1758.52 176.377C1757.24 175.183 1756.88 173.615 1756.88 170.888V148.148C1756.88 145.381 1757.24 143.854 1758.52 142.659C1759.79 141.464 1761.43 141.127 1764.38 141.127H1838C1840.95 141.127 1842.59 141.464 1843.87 142.659C1845.14 143.854 1845.5 145.383 1845.5 148.148V170.888C1845.5 173.615 1845.14 175.183 1843.87 176.377C1842.59 177.534 1840.95 177.909 1838 177.909Z" fill="black"/>
<rect x="1527" y="171" width="15" height="15" rx="4" fill="#C8CACA"/>
<rect x="1550" y="171" width="15" height="15" rx="4" fill="#C8CACA"/>
<rect x="1573" y="171" width="15" height="15" rx="4" fill="#C8CACA"/>
<rect x="1596" y="171" width="15" height="15" rx="4" fill="#C8CACA"/>
</g>
<defs>
<clipPath id="clip0_98_47">
<rect width="2020" height="4243" rx="304" fill="white"/>
</clipPath>
</defs>
</svg>
