<svg width="2905" height="1667" viewBox="0 0 2905 1667" fill="none" xmlns="http://www.w3.org/2000/svg">
<g clip-path="url(#clip0_93_22633)">
<path d="M1125 732.5L1390 1050.5L2085.5 1821L356.5 1780.5H-52.5L-101.5 1354L634 994L774 835L905.5 723L984.5 625.5L1063 713.5L1125 732.5Z" fill="#101010"/>
<path d="M847 758.5C825.4 781.3 661 907 581.5 967L-39 1261L-110 1374L645 1032L892 895L859.5 859L956.5 781.5L942 747L784 835.5L934.5 730L984.5 625.5H956.5C929 660.333 868.6 735.7 847 758.5Z" fill="#2D2D2D"/>
</g>
<defs>
<clipPath id="clip0_93_22633">
<rect width="2905" height="1667" fill="white"/>
</clipPath>
</defs>
</svg>
