<svg width="2905" height="1667" viewBox="0 0 2905 1667" fill="none" xmlns="http://www.w3.org/2000/svg">
<g clip-path="url(#clip0_93_22577)">
<path d="M94.392 706L18 998L-328.5 1773C-328.5 1773 3162 1839 3038 1649C2914 1459 1390 1055.5 1390 1055.5L1367.39 977.5L1354.55 1012.5L1334.39 965L1302.61 1033.5L1178.55 1028L1152.27 913.5L1125.38 1022L1110.1 947.5L1094.21 1022L1070.99 1012.5L1033.1 913.5L1005.6 977.5L987.873 924.5L959.76 1012.5H805.143L784.975 939L768.475 1003.5H742.196L714.084 896.5L690.25 996L671.304 924.5L662.137 983.5H629.747L605.302 919.5L591.857 954.5L574.134 866.5L554.577 947.5L543.577 896.5L515.465 970L403.016 965L386.515 896.5L370.014 954.5L341.291 794L313.179 909.5L299.122 824.5L266.121 954.5L237.398 877L214.175 919.5L187.896 840L146.95 909.5L94.392 706Z" fill="black"/>
</g>
<defs>
<clipPath id="clip0_93_22577">
<rect width="2905" height="1667" fill="white"/>
</clipPath>
</defs>
</svg>
