<svg width="2905" height="1667" viewBox="0 0 2905 1667" fill="none" xmlns="http://www.w3.org/2000/svg">
<g clip-path="url(#clip0_93_22498)">
<path d="M1125 732.5L1390 1050.5L831 1062.5L676 1019.5L634 994L774 835L905.5 723L984.5 625.5L1063 713.5L1125 732.5Z" fill="#101010"/>
<path d="M847 758.5C825.4 781.3 661 907 581.5 967L641 1010.5L892 895L859.5 859L956.5 781.5L942 747L784 835.5L934.5 730L984.5 625.5H956.5C929 660.333 868.6 735.7 847 758.5Z" fill="#2D2D2D"/>
<path d="M1535.5 608L1463 530L1237.5 752V1067H2302.5L2321 982L1739.5 784.5L1535.5 608Z" fill="#101010"/>
<path d="M1029.5 872.5L869.5 1010L855.5 1078H1295.5L1588 957.5L1420 864.5L1479.5 789.5L1436.5 707L1271 799L1395.5 700L1463.5 529.5L1395.5 563.5H1367.5L1245 677.5L1090 848L1029.5 872.5Z" fill="#2D2D2D"/>
<path d="M1544 1105.5L1800 886L1871.5 815L1937.5 701.5L2002.5 718.5L2157.5 886L2405 1079.5L1544 1105.5Z" fill="#101010"/>
<path d="M1911 727L1798.5 887.5L1884.5 830.5L1774 952.5L1966.5 864.5L1937.5 761L1977 737.5L1937.5 701.5L1911 727Z" fill="#2D2D2D"/>
<path d="M94.392 706L18 998L313.179 1055.5L714.084 1094L1390 1055.5L1367.39 977.5L1354.55 1012.5L1334.39 965L1302.61 1033.5L1178.55 1028L1152.27 913.5L1125.38 1022L1110.1 947.5L1094.21 1022L1070.99 1012.5L1033.1 913.5L1005.6 977.5L987.873 924.5L959.76 1012.5H805.143L784.975 939L768.475 1003.5H742.196L714.084 896.5L690.249 996L671.304 924.5L662.137 983.5H629.747L605.302 919.5L591.857 954.5L574.134 866.5L554.577 947.5L543.577 896.5L515.465 970L403.016 965L386.515 896.5L370.014 954.5L341.291 794L313.179 909.5L299.122 824.5L266.121 954.5L237.398 877L214.175 919.5L187.896 840L146.95 909.5L94.392 706Z" fill="black"/>
<path d="M1603.33 1056C1015.99 969.6 289.72 940 0 936V1672.5L2701.5 1255.5C2704.35 1229.17 2190.67 1142.4 1603.33 1056Z" fill="#101010"/>
<path d="M2710.62 714L2787 1005.69L2491.89 1063.12L2091.07 1101.58L1679.87 1178L1554 1138.54L1626.71 1101.58L1632 1090.5L1603.5 1101.58L1626.71 1035.65L1652.98 921.277L1679.87 1029.66L1695.14 955.24L1711.03 1029.66L1734.25 1020.17L1772.13 921.277L1799.62 985.208L1817.34 932.265L1845.45 1020.17H2000.03L2020.19 946.749L2036.69 1011.18H2062.96L2091.07 904.295L2114.9 1003.69L2133.84 932.265L2143 991.201H2175.39L2199.83 927.27L2213.27 962.233L2230.99 874.327L2250.54 955.24L2261.54 904.295L2289.65 977.716L2402.07 972.721L2418.57 904.295L2435.06 962.233L2463.78 801.905L2491.89 917.281L2505.94 832.372L2538.93 962.233L2567.65 884.816L2590.87 927.27L2617.14 847.856L2658.08 917.281L2710.62 714Z" fill="black"/>
<path d="M1327.5 1138.5C1736.92 1025.55 2474.25 952.872 2904.99 924V1667H-128.504C-147.029 1667 918.084 1251.45 1327.5 1138.5Z" fill="black"/>
</g>
<defs>
<clipPath id="clip0_93_22498">
<rect width="2905" height="1667" fill="white"/>
</clipPath>
</defs>
</svg>
