<svg width="5950" height="3070" viewBox="0 0 5950 3070" fill="none" xmlns="http://www.w3.org/2000/svg">
<g clip-path="url(#clip0_192_82)">
<mask id="mask0_192_82" style="mask-type:luminance" maskUnits="userSpaceOnUse" x="-1" y="2949" width="5952" height="87">
<path d="M5950.27 2968.29C5950.27 2968.29 5767.17 3035.22 5492.53 3035.22C5217.89 3035.22 732.108 3035.22 457.468 3035.22C182.828 3035.22 -0.265625 2968.29 -0.265625 2968.29L2975 2949.16L5950.27 2968.29Z" fill="white"/>
</mask>
<g mask="url(#mask0_192_82)">
<path d="M5950.27 2968.29C5950.27 2968.29 5767.17 3035.22 5492.53 3035.22C5217.89 3035.22 732.108 3035.22 457.468 3035.22C182.828 3035.22 -0.265625 2968.29 -0.265625 2968.29L2975 2949.16L5950.27 2968.29Z" fill="url(#paint0_linear_192_82)"/>
</g>
<mask id="mask1_192_82" style="mask-type:luminance" maskUnits="userSpaceOnUse" x="-1" y="2872" width="5952" height="97">
<path d="M5950.27 2872.66V2968.28H-0.265625V2872.66H5950.27Z" fill="white"/>
</mask>
<g mask="url(#mask1_192_82)">
<path d="M5950.27 2872.66V2968.28H-0.265625V2872.66H5950.27Z" fill="url(#paint1_linear_192_82)"/>
</g>
<mask id="mask2_192_82" style="mask-type:luminance" maskUnits="userSpaceOnUse" x="2494" y="2872" width="962" height="68">
<path d="M3375.52 2939.6H2574.49C2530.25 2939.6 2494.38 2909.63 2494.38 2872.67H3455.62C3455.62 2909.63 3419.76 2939.6 3375.52 2939.6Z" fill="white"/>
</mask>
<g mask="url(#mask2_192_82)">
<path d="M3375.52 2939.6H2574.49C2530.25 2939.6 2494.38 2909.63 2494.38 2872.67H3455.62C3455.62 2909.63 3419.76 2939.6 3375.52 2939.6Z" fill="url(#paint2_linear_192_82)"/>
</g>
</g>
<defs>
<linearGradient id="paint0_linear_192_82" x1="2975" y1="2968.41" x2="2975" y2="3036.92" gradientUnits="userSpaceOnUse">
<stop stop-color="#70757B"/>
<stop offset="0.356366" stop-color="#70757B"/>
<stop offset="0.504464" stop-color="#676C72"/>
<stop offset="0.544324" stop-color="#696E75"/>
<stop offset="1" stop-color="#0C0D0F"/>
</linearGradient>
<linearGradient id="paint1_linear_192_82" x1="-0.265625" y1="2920.47" x2="5950.27" y2="2920.47" gradientUnits="userSpaceOnUse">
<stop stop-color="#3C3C44"/>
<stop offset="0.0121171" stop-color="#CBCDD1"/>
<stop offset="0.0282238" stop-color="#C6C8CD"/>
<stop offset="0.0804356" stop-color="#7D8188"/>
<stop offset="0.0917801" stop-color="#757A80"/>
<stop offset="0.511312" stop-color="#C1C2CA"/>
<stop offset="0.926379" stop-color="#757A80"/>
<stop offset="0.937042" stop-color="#7C8087"/>
<stop offset="0.978986" stop-color="#C6C8CD"/>
<stop offset="0.993963" stop-color="#CBCDD1"/>
<stop offset="1" stop-color="#38393F"/>
</linearGradient>
<linearGradient id="paint2_linear_192_82" x1="2494.38" y1="2906.13" x2="3455.62" y2="2906.13" gradientUnits="userSpaceOnUse">
<stop stop-color="#121214"/>
<stop offset="0.0580756" stop-color="#747780"/>
<stop offset="0.30106" stop-color="#7F828C"/>
<stop offset="0.523976" stop-color="#A0A2AB"/>
<stop offset="0.716099" stop-color="#7B7F87"/>
<stop offset="0.949538" stop-color="#6B6F77"/>
<stop offset="1" stop-color="#0C0D0F"/>
</linearGradient>
<clipPath id="clip0_192_82">
<rect width="5950" height="3070" fill="white"/>
</clipPath>
</defs>
</svg>
