<svg width="496" height="496" viewBox="0 0 496 496" fill="none" xmlns="http://www.w3.org/2000/svg">
<path fill-rule="evenodd" clip-rule="evenodd" d="M167.48 3.32211C166.699 1.08204 164.25 -0.100861 162.01 0.680028C159.77 1.46092 158.587 3.9099 159.368 6.14997L237.506 230.298C238.287 232.538 240.736 233.721 242.976 232.94C245.216 232.159 246.399 229.71 245.618 227.47L167.48 3.32211ZM265.495 237.071C263.255 237.852 262.072 240.301 262.853 242.541C263.634 244.781 266.083 245.964 268.323 245.183L492.471 167.045C494.711 166.265 495.894 163.816 495.113 161.575C494.332 159.335 491.883 158.153 489.643 158.933L265.495 237.071ZM252.817 263.318C250.577 264.099 249.394 266.548 250.175 268.788L328.313 492.936C329.094 495.176 331.543 496.359 333.783 495.578C336.023 494.797 337.206 492.348 336.425 490.108L258.287 265.96C257.506 263.72 255.057 262.537 252.817 263.318ZM6.15003 337.325C3.90996 338.106 1.46099 336.923 0.6801 334.683C-0.100787 332.443 1.08212 329.994 3.3222 329.213L227.47 251.076C229.71 250.295 232.159 251.478 232.94 253.718C233.721 255.958 232.538 258.407 230.298 259.188L6.15003 337.325Z" fill="black" fill-opacity="0.29"/>
</svg>
