<svg width="2905" height="1667" viewBox="0 0 2905 1667" fill="none" xmlns="http://www.w3.org/2000/svg">
<g clip-path="url(#clip0_93_22548)">
<path d="M2710.62 714L2787 1005.69L2953.5 1029.66L2925 1269.5L2953.5 1711C2953.5 1711 -189.5 2020 389 1682.5C967.5 1345 1579.5 1114.5 1579.5 1114.5L1587.5 1108L1603.5 1101.58L1626.71 1035.65L1652.98 921.277L1679.87 1029.66L1695.14 955.24L1711.03 1029.66L1734.25 1020.17L1772.13 921.277L1799.62 985.208L1817.34 932.265L1845.45 1020.17H2000.03L2020.19 946.749L2036.69 1011.18H2062.96L2091.07 904.295L2114.9 1003.69L2133.84 932.265L2143 991.201H2175.39L2199.83 927.27L2213.27 962.233L2230.99 874.327L2250.54 955.24L2261.54 904.295L2289.65 977.716L2402.07 972.721L2418.57 904.295L2435.06 962.233L2463.78 801.905L2491.89 917.281L2505.94 832.372L2538.93 962.233L2567.65 884.816L2590.87 927.27L2617.14 847.856L2658.08 917.281L2710.62 714Z" fill="black"/>
</g>
<defs>
<clipPath id="clip0_93_22548">
<rect width="2905" height="1667" fill="white"/>
</clipPath>
</defs>
</svg>
